# xmcd
#
# Track frame offsets:
#	150
#	14000
#	27660
#	41794
#	55415
#	69537
#	80121
#	94251
#	105321
#	118830
#
# Disc length: 1762 seconds
#
# Revision: 1
# Processed by: cddbd v1.5.2PL0 Copyright (c) Steve Scherf et al.
# Submitted via: audiograbber 1.83.01
#
DISCID=8f06e00a
DTITLE=George Jones - You've Still Got A Place In My Haert
DYEAR=1983
DGENRE=Country
TTITLE0=You've Still Got A Place In My Heart
TTITLE1=From Strangers, To Lovers, To Friends
TTITLE2=The Second Time Around
TTITLE3=Come Sundown
TTITLE4=Even The Bad Times Are Good
TTITLE5=I'm Ragged But I'm Right
TTITLE6=Courtin' In The Rain
TTITLE7=Loveshine
TTITLE8=Your Lying Blue Eyes
TTITLE9=Learning To Do Without Me
EXTD=
EXTT0=
EXTT1=
EXTT2=
EXTT3=
EXTT4=
EXTT5=
EXTT6=
EXTT7=
EXTT8=
EXTT9=
PLAYORDER=
